<mxfile host="app.diagrams.net" modified="2020-05-11T02:37:47.666Z" agent="5.0 (Macintosh; Intel Mac OS X 10_15_3) AppleWebKit/537.36 (KHTML, like Gecko) Chrome/81.0.4044.138 Safari/537.36" etag="CEKJMPmoujV5TPKLxdNp" version="13.0.8" type="github">
  <diagram id="RC9avffKnGslfeTPu71o" name="Page-1">
    <mxGraphModel dx="968" dy="667" grid="1" gridSize="10" guides="1" tooltips="1" connect="1" arrows="1" fold="1" page="1" pageScale="1" pageWidth="827" pageHeight="1169" math="0" shadow="0">
      <root>
        <mxCell id="0" />
        <mxCell id="1" parent="0" />
        <mxCell id="nqUM3Sm1_1U_bCqg0LgO-1" value="客户端" style="rounded=1;whiteSpace=wrap;html=1;" parent="1" vertex="1">
          <mxGeometry x="110" y="130" width="100" height="40" as="geometry" />
        </mxCell>
        <mxCell id="aNvzju850t84WLl4p4Ta-6" style="edgeStyle=orthogonalEdgeStyle;rounded=0;orthogonalLoop=1;jettySize=auto;html=1;exitX=0.5;exitY=1;exitDx=0;exitDy=0;entryX=0.5;entryY=0;entryDx=0;entryDy=0;" edge="1" parent="1" source="aNvzju850t84WLl4p4Ta-1" target="aNvzju850t84WLl4p4Ta-3">
          <mxGeometry relative="1" as="geometry" />
        </mxCell>
        <mxCell id="aNvzju850t84WLl4p4Ta-16" style="edgeStyle=orthogonalEdgeStyle;rounded=0;orthogonalLoop=1;jettySize=auto;html=1;exitX=1;exitY=0.5;exitDx=0;exitDy=0;entryX=1;entryY=0.5;entryDx=0;entryDy=0;" edge="1" parent="1" source="aNvzju850t84WLl4p4Ta-1" target="nqUM3Sm1_1U_bCqg0LgO-1">
          <mxGeometry relative="1" as="geometry" />
        </mxCell>
        <mxCell id="aNvzju850t84WLl4p4Ta-1" value="本地DNS服务器" style="rounded=1;whiteSpace=wrap;html=1;" vertex="1" parent="1">
          <mxGeometry x="110" y="210" width="100" height="40" as="geometry" />
        </mxCell>
        <mxCell id="aNvzju850t84WLl4p4Ta-2" value="" style="endArrow=classic;html=1;exitX=0.5;exitY=1;exitDx=0;exitDy=0;entryX=0.5;entryY=0;entryDx=0;entryDy=0;" edge="1" parent="1" source="nqUM3Sm1_1U_bCqg0LgO-1" target="aNvzju850t84WLl4p4Ta-1">
          <mxGeometry width="50" height="50" relative="1" as="geometry">
            <mxPoint x="390" y="370" as="sourcePoint" />
            <mxPoint x="440" y="320" as="targetPoint" />
          </mxGeometry>
        </mxCell>
        <mxCell id="aNvzju850t84WLl4p4Ta-7" style="edgeStyle=orthogonalEdgeStyle;rounded=0;orthogonalLoop=1;jettySize=auto;html=1;exitX=0.5;exitY=1;exitDx=0;exitDy=0;entryX=0.5;entryY=0;entryDx=0;entryDy=0;" edge="1" parent="1" source="aNvzju850t84WLl4p4Ta-3" target="aNvzju850t84WLl4p4Ta-4">
          <mxGeometry relative="1" as="geometry" />
        </mxCell>
        <mxCell id="aNvzju850t84WLl4p4Ta-15" style="edgeStyle=orthogonalEdgeStyle;rounded=0;orthogonalLoop=1;jettySize=auto;html=1;exitX=1;exitY=0.5;exitDx=0;exitDy=0;entryX=1;entryY=0.75;entryDx=0;entryDy=0;" edge="1" parent="1" source="aNvzju850t84WLl4p4Ta-3" target="aNvzju850t84WLl4p4Ta-1">
          <mxGeometry relative="1" as="geometry" />
        </mxCell>
        <mxCell id="aNvzju850t84WLl4p4Ta-3" value="根域名服务器" style="rounded=1;whiteSpace=wrap;html=1;" vertex="1" parent="1">
          <mxGeometry x="110" y="300" width="100" height="40" as="geometry" />
        </mxCell>
        <mxCell id="aNvzju850t84WLl4p4Ta-8" style="edgeStyle=orthogonalEdgeStyle;rounded=0;orthogonalLoop=1;jettySize=auto;html=1;exitX=0.5;exitY=1;exitDx=0;exitDy=0;entryX=0.5;entryY=0;entryDx=0;entryDy=0;" edge="1" parent="1" source="aNvzju850t84WLl4p4Ta-4" target="aNvzju850t84WLl4p4Ta-5">
          <mxGeometry relative="1" as="geometry" />
        </mxCell>
        <mxCell id="aNvzju850t84WLl4p4Ta-14" style="edgeStyle=orthogonalEdgeStyle;rounded=0;orthogonalLoop=1;jettySize=auto;html=1;exitX=1;exitY=0.5;exitDx=0;exitDy=0;entryX=1;entryY=0.75;entryDx=0;entryDy=0;" edge="1" parent="1" source="aNvzju850t84WLl4p4Ta-4" target="aNvzju850t84WLl4p4Ta-3">
          <mxGeometry relative="1" as="geometry" />
        </mxCell>
        <mxCell id="aNvzju850t84WLl4p4Ta-4" value="顶级域名服务器" style="rounded=1;whiteSpace=wrap;html=1;" vertex="1" parent="1">
          <mxGeometry x="110" y="380" width="100" height="40" as="geometry" />
        </mxCell>
        <mxCell id="aNvzju850t84WLl4p4Ta-10" style="edgeStyle=orthogonalEdgeStyle;rounded=0;orthogonalLoop=1;jettySize=auto;html=1;exitX=1;exitY=0.5;exitDx=0;exitDy=0;entryX=1;entryY=0.75;entryDx=0;entryDy=0;" edge="1" parent="1" source="aNvzju850t84WLl4p4Ta-5" target="aNvzju850t84WLl4p4Ta-4">
          <mxGeometry relative="1" as="geometry" />
        </mxCell>
        <mxCell id="aNvzju850t84WLl4p4Ta-5" value="B域名服务器" style="rounded=1;whiteSpace=wrap;html=1;" vertex="1" parent="1">
          <mxGeometry x="110" y="460" width="100" height="40" as="geometry" />
        </mxCell>
        <mxCell id="aNvzju850t84WLl4p4Ta-9" value="发起xxx域名对应的ip地址寻址请求" style="text;html=1;strokeColor=none;fillColor=none;align=center;verticalAlign=middle;whiteSpace=wrap;rounded=0;" vertex="1" parent="1">
          <mxGeometry x="60" y="180" width="100" height="20" as="geometry" />
        </mxCell>
        <mxCell id="aNvzju850t84WLl4p4Ta-11" value="返回寻址ip，结束查询" style="text;html=1;strokeColor=none;fillColor=none;align=center;verticalAlign=middle;whiteSpace=wrap;rounded=0;" vertex="1" parent="1">
          <mxGeometry x="240" y="430" width="90" height="20" as="geometry" />
        </mxCell>
        <mxCell id="aNvzju850t84WLl4p4Ta-17" value="逐层查询" style="text;html=1;strokeColor=none;fillColor=none;align=center;verticalAlign=middle;whiteSpace=wrap;rounded=0;" vertex="1" parent="1">
          <mxGeometry x="100" y="260" width="60" height="20" as="geometry" />
        </mxCell>
        <mxCell id="aNvzju850t84WLl4p4Ta-18" value="逐层查询" style="text;html=1;strokeColor=none;fillColor=none;align=center;verticalAlign=middle;whiteSpace=wrap;rounded=0;" vertex="1" parent="1">
          <mxGeometry x="100" y="430" width="60" height="20" as="geometry" />
        </mxCell>
        <mxCell id="aNvzju850t84WLl4p4Ta-19" value="逐层查询" style="text;html=1;strokeColor=none;fillColor=none;align=center;verticalAlign=middle;whiteSpace=wrap;rounded=0;" vertex="1" parent="1">
          <mxGeometry x="100" y="350" width="60" height="20" as="geometry" />
        </mxCell>
        <mxCell id="aNvzju850t84WLl4p4Ta-20" value="逐层返回" style="text;html=1;strokeColor=none;fillColor=none;align=center;verticalAlign=middle;whiteSpace=wrap;rounded=0;" vertex="1" parent="1">
          <mxGeometry x="240" y="350" width="60" height="20" as="geometry" />
        </mxCell>
        <mxCell id="aNvzju850t84WLl4p4Ta-21" value="逐层返回" style="text;html=1;strokeColor=none;fillColor=none;align=center;verticalAlign=middle;whiteSpace=wrap;rounded=0;" vertex="1" parent="1">
          <mxGeometry x="240" y="280" width="60" height="20" as="geometry" />
        </mxCell>
        <mxCell id="aNvzju850t84WLl4p4Ta-22" value="逐层返回" style="text;html=1;strokeColor=none;fillColor=none;align=center;verticalAlign=middle;whiteSpace=wrap;rounded=0;" vertex="1" parent="1">
          <mxGeometry x="240" y="180" width="60" height="20" as="geometry" />
        </mxCell>
      </root>
    </mxGraphModel>
  </diagram>
</mxfile>
